<svg xmlns="http://www.w3.org/2000/svg" width="256" height="64" viewBox="0 0 256 64" shape-rendering="crispEdges">
  <rect x="0" y="52" width="256" height="12" fill="#1b4a31"/>
  <rect x="0" y="48" width="256" height="4" fill="#2d7342"/>
  <rect x="12" y="34" width="6" height="18" fill="#50c45b"/>
  <rect x="22" y="26" width="6" height="26" fill="#69db6e"/>
  <rect x="36" y="40" width="6" height="12" fill="#368f48"/>
  <rect x="52" y="30" width="6" height="22" fill="#50c45b"/>
  <rect x="66" y="20" width="6" height="32" fill="#73e076"/>
  <rect x="84" y="38" width="6" height="14" fill="#2d7342"/>
  <rect x="102" y="24" width="6" height="28" fill="#50c45b"/>
  <rect x="118" y="34" width="6" height="18" fill="#69db6e"/>
  <rect x="136" y="18" width="6" height="34" fill="#73e076"/>
  <rect x="154" y="36" width="6" height="16" fill="#368f48"/>
  <rect x="174" y="28" width="6" height="24" fill="#50c45b"/>
  <rect x="190" y="42" width="6" height="10" fill="#2d7342"/>
  <rect x="210" y="22" width="6" height="30" fill="#69db6e"/>
  <rect x="228" y="34" width="6" height="18" fill="#50c45b"/>
  <rect x="244" y="40" width="6" height="12" fill="#368f48"/>
</svg>
